<svg width="1402" height="209" viewBox="0 0 1402 209" xmlns="http://www.w3.org/2000/svg">
<path d="M120.24 80.23C120.59 79.58 121.42 79.38 122.03 79.79C125.55 82.18 130.57 84.97 137 86.72C142.78 88.3 148.9 88.99 154.88 88.76C165.39 88.36 173.54 84.51 181.2 77.54C186.26 72.93 189.85 66.73 191.25 60.02C195.75 38.51 177.28 16.09 156.27 13.48C146.13 12.22 135.33 14.16 126.03 18.33C122.53 19.9 119.68 21.69 117.47 23.3C116.87 23.74 116.04 23.56 115.66 22.92C113.71 19.66 110.49 15.34 105.39 11.88C90.98 2.10001 68.35 3.72999 54.42 17.04C41.02 29.84 41.61 47.77 42.05 52.75C42.1 53.36 41.71 53.92 41.12 54.07C34.73 55.67 25.99 58.93 18.29 66.08C-2.37 85.27 -4.57001 122.32 11.84 147.37C25.76 168.62 48.72 174.6 56.42 176.16C57.08 176.29 57.53 176.93 57.41 177.6C56.89 180.51 56.68 184.55 58.3 188.66C62.41 199.16 75.33 202.41 87.33 205.43C96.85 207.83 104.85 209.72 113.78 206.08C118.94 203.97 122.55 200.77 124.79 198.36C125.16 197.97 125.73 197.85 126.22 198.08C129.49 199.59 132.66 201.27 136.05 202.51C139.58 203.8 143.29 204.48 146.96 205.21C158.43 207.51 171.06 205.54 179.84 197.25C180.14 196.97 180.43 196.68 180.72 196.39C189.31 187.56 191.61 170.16 183.03 160.36C174.65 150.78 156.71 150.92 146.69 158.34C143.57 160.65 141.33 163.31 139.74 165.69C139.09 166.67 137.57 166.31 137.44 165.14C136.78 159.05 134.18 147.84 124.1 139.63C111.66 129.49 96.99 131.37 90.57 132.89C89.49 133.15 88.63 131.96 89.21 131.02C90.98 128.14 92.69 124.55 93.77 120.28C96.9 107.87 92.92 96.75 89.37 89.96C88.78 88.83 90.04 87.65 91.13 88.3C94.19 90.12 98.37 91.66 103.44 91.24C110.5 90.66 116.8 86.48 120.23 80.23H120.24Z" fill="currentColor"/>
<path d="M264.28 113.45C263.64 113.17 263.24 112.33 263.7 111.79C274.89 98.58 282.02 82.34 279.42 64.78C278.84 60.87 277.85 57.12 275.88 53.67C274.78 51.75 273.42 49.98 271.8 48.46L270.82 47.54C269.99 46.76 269.95 45.48 270.69 44.62C274.72 39.93 277.22 34.48 277.1 29.25C276.84 17.94 264.44 9.73999 258.18 6.97999C257.4 6.63999 242.6 2.12001 228.67 11.82C225.05 14.34 217.51 21.39 217.32 31.18C217.19 37.94 220.73 44.07 225.55 48.68C226.46 49.55 226.4 51.03 225.39 51.79C221.84 54.48 218.79 57.68 216.56 61.32C209.16 73.42 210.57 88.68 211.93 95.28C214.3 106.77 221.52 114.34 224.83 119.39C225.19 119.95 225.02 120.69 224.44 121.02C219.6 123.79 212.68 128.73 207.48 137C196.33 154.73 195.2 184.45 214.29 199.81C233.02 214.88 259.32 206.54 273.32 196.78C276.81 194.35 295.47 181.33 296.02 158.94C296.48 140.12 283.96 121.98 264.29 113.43L264.28 113.45Z" fill="currentColor"/>
<path d="M404.35 28.69C404.04 28.9 394.34 23.11 393.37 22.63C386.97 19.45 380.48 16.28 373.77 13.78C355.51 6.99 331.71 2.84997 313.28 10.93C288.68 21.72 280.01 55.33 298.41 75.87C308.33 86.95 324.28 91.5 339.84 88C341.05 87.73 341.99 89.04 341.33 90.09C338.35 94.84 334.83 101.38 332.07 109.53C329.36 117.53 317.33 153.08 337.68 180.6C341.18 185.33 355.84 206.74 376.95 204.91C399.87 202.93 410.69 175.4 411.55 173.12C419.89 150.96 412.24 124.07 392.86 103.1C392.21 102.4 392.73 100.79 393.6 101.18C418.56 112.51 459.58 105.01 467.23 72.5C471.56 54.08 463.58 34.53 445.62 27.89C433.87 23.55 415.47 21.35 404.34 28.69H404.35Z" fill="currentColor"/>
<path d="M866.53 14.74C843.09 -1.07 808.44 1.72004 780.82 22.65C779.83 23.4 778.46 23.38 777.52 22.57C773.86 19.4 764.55 12.67 753.35 14.75C736.68 17.85 731.48 37.56 730.71 40.47C725.73 59.33 737.13 75.53 741.54 80.9C742.32 81.85 742.33 83.21 741.57 84.18C739.38 86.98 736.72 92.61 735.38 100.55C733.51 111.63 736.45 123.24 747.11 130.23C748.54 131.17 748.64 133.23 747.35 134.35C735.67 144.4 729.99 159.61 732.77 174.23C735.21 187.06 744.39 200.65 759.52 205.1C778.8 210.76 794.46 197.66 796.56 195.84C809.24 184.86 814.37 166.55 810.26 148.33C809.81 146.33 811.77 144.63 813.7 145.32C819.97 147.54 829.63 149.7 840.8 147.49C846.85 146.29 863.92 142.92 870.64 127.94C874.98 118.27 872.79 108.66 871.3 104.09C870.94 102.98 871.35 101.78 872.31 101.13C878.12 97.22 889.29 88.26 893.27 73.41C899.89 48.75 882.05 25.24 866.52 14.76L866.53 14.74ZM827.25 88.64C823.91 88.49 818.32 88.94 813.04 92.72C808.88 95.7 806.67 99.49 805.52 102.18C805.41 102.43 805.05 102.32 805.08 102.06C805.53 98.86 805.63 94.58 803.58 91.78C800.93 88.15 796.49 86.26 792.02 86.76C791.76 86.79 791.65 86.45 791.88 86.33C794.32 85.06 797.9 82.7 800.75 78.56C804.33 73.36 805.03 67.88 804.97 64.11C804.97 63.8 805.41 63.75 805.48 64.06C806.17 67.36 807.29 71.55 810.2 75.73C815.59 83.48 823.04 86.82 827.33 88.2C827.59 88.28 827.52 88.66 827.25 88.65V88.64Z" fill="currentColor"/>
<path d="M568.57 50.23C567.54 52.09 564.82 51.9 564.04 49.92C561.22 42.76 555.56 32.69 554.17 30.92C549.08 24.45 542.86 18.3901 536.03 13.7801C518.33 1.82006 487.61 1.15005 479.92 25.46C473.17 46.82 479.5 68.48 500.63 78.19C502.41 79.01 512.57 82.84 518.4 83.64C520.05 83.87 521.01 85.61 520.33 87.13C518.24 91.83 515.91 99.29 516.65 108.45C517.69 121.37 524.24 130.2 527.63 134.04C528.37 134.88 528.46 136.1 527.85 137.04C524.72 141.91 520.3 150.36 519.11 161.61C518.48 167.49 517.32 178.45 523.2 188.6C531.83 203.49 553.1 212.3 570.64 205.78C589.17 198.89 594.28 178.32 596 171.43C602.22 146.4 589.81 125.02 584.6 117.36C583.77 116.15 584.16 114.5 585.43 113.77C587.86 112.37 591.32 109.74 593.55 105.17C595.51 101.14 595.71 97.26 595.42 94.36C595.25 92.69 596.69 91.3 598.34 91.6C603.48 92.55 611.91 92.06 613.65 91.81C620.54 90.83 627.67 87.7 633.6 83.7C641.61 78.29 648.09 65.9 648.2 56.23C648.32 45.5 645.31 35.19 635.46 28.98C611.13 13.65 581.56 26.89 568.6 50.21L568.57 50.23Z" fill="currentColor"/>
<path d="M1382.54 5.03402V3.51272H1389.7V5.03402H1387.03V12.24H1385.21V5.03402H1382.54ZM1390.88 3.51272H1393.16L1395.56 9.37635H1395.67L1398.07 3.51272H1400.34V12.24H1398.55V6.55959H1398.48L1396.22 12.1974H1395L1392.75 6.53829H1392.67V12.24H1390.88V3.51272Z" fill="currentColor"/>
<path d="M1313.83 49.37C1312.8 51.23 1310.08 51.04 1309.3 49.06C1306.48 41.9 1300.82 31.83 1299.43 30.06C1294.34 23.59 1288.12 17.53 1281.29 12.92C1263.59 0.960009 1232.87 0.290001 1225.18 24.6C1218.43 45.96 1224.76 67.62 1245.89 77.33C1247.67 78.15 1257.83 81.9801 1263.66 82.7801C1265.31 83.0101 1266.27 84.75 1265.59 86.27C1263.5 90.97 1261.17 98.43 1261.91 107.59C1262.95 120.51 1269.5 129.34 1272.89 133.18C1273.63 134.02 1273.72 135.24 1273.11 136.18C1269.98 141.05 1265.56 149.5 1264.37 160.75C1263.74 166.63 1262.58 177.59 1268.46 187.74C1277.09 202.63 1298.36 211.44 1315.9 204.92C1334.43 198.03 1339.54 177.46 1341.26 170.57C1347.48 145.54 1335.07 124.16 1329.86 116.5C1329.03 115.29 1329.42 113.64 1330.69 112.91C1333.12 111.51 1336.58 108.88 1338.81 104.31C1340.77 100.28 1340.97 96.4 1340.68 93.5C1340.51 91.83 1341.95 90.44 1343.6 90.74C1348.74 91.69 1357.17 91.2 1358.91 90.95C1365.8 89.97 1372.93 86.84 1378.86 82.84C1386.87 77.43 1393.35 65.04 1393.46 55.37C1393.58 44.64 1390.57 34.33 1380.72 28.12C1356.39 12.79 1326.82 26.03 1313.86 49.35L1313.83 49.37Z" fill="currentColor"/>
<path d="M980.62 135.54C978.71 136.23 976.79 134.61 977.13 132.61C977.8 128.74 978.02 123.24 975.89 117.25C972.92 108.91 966.96 103.99 962.74 101.4C961.03 100.35 961.08 97.86 962.83 96.88C967.84 94.08 974.58 89.16 979.52 81C989.18 65.04 987.16 44.62 977.45 30.26C975.61 27.54 962.87 9.34998 941.2 9.54998C938.35 9.57998 923.99 10.02 913.24 21.46C902.4 32.99 901.03 49.52 905.47 61.85C907.6 67.75 910.84 72.1 913.47 74.97C914.24 75.8 914.38 77.03 913.82 78.02C911.53 82.04 909.38 86.49 907.55 91.37C905.41 97.05 893.47 130.03 908.59 165.41C914.16 178.45 920.03 192.19 935 199.07C954.57 208.06 974.99 198.55 981.14 195.24C982.05 194.75 983.15 194.83 983.97 195.46C988.55 198.96 996.96 204.23 1008.52 205.8C1014.55 206.62 1032.63 209.07 1045.28 195.96C1054.78 186.11 1057.61 171.22 1053.56 159.2C1046.28 137.57 1019.46 133.35 1012.65 132.27C999.22 130.15 987.82 132.93 980.61 135.54H980.62Z" fill="currentColor"/>
<path d="M1240.37 146.02C1235.07 140.93 1229.27 138.48 1225.41 137.26C1224.89 137.1 1224.64 136.51 1224.88 136.02C1227.27 131.13 1235.32 112.17 1226.13 92.96C1221.5 83.26 1214.36 77.46 1209.88 74.47C1209.04 73.91 1208.63 72.89 1208.87 71.9C1213.12 54.43 1206.53 32.09 1193.68 21.69C1180.56 11.06 1162.14 7.65997 1146.52 16.29C1135.48 22.39 1129.01 32.03 1127.69 44.35C1127.62 44.99 1127.14 45.51 1126.5 45.61C1109.4 48.42 1094.18 61.9 1089.66 77.87C1087.33 86.12 1086.93 94.89 1088.42 103.33C1090 112.24 1094.45 119.92 1096.56 128.68C1096.63 128.99 1096.48 129.31 1096.19 129.43C1091.48 131.47 1081.01 136.84 1073.89 148.6C1071.58 152.42 1061.82 168.57 1069.14 185.26C1076.71 202.5 1095.3 205.7 1099.33 206.4C1111.95 208.57 1132.69 206.3 1141.17 190.44C1146.8 179.91 1144.22 168.66 1142.67 163.82C1142.53 163.37 1143.05 163 1143.43 163.28C1147.49 166.22 1150.1 168.27 1156.56 168.32C1161.74 168.36 1165.57 165.83 1167.6 164.28C1167.91 164.04 1168.35 164.24 1168.38 164.63C1168.72 168.95 1169.95 176.53 1174.79 184.41C1180.16 193.14 1187.07 197.51 1190.32 199.51C1195.5 202.7 1207.99 210.39 1223.53 206.84C1225.86 206.31 1244.57 201.7 1250.7 183.98C1255.85 169.08 1248.89 154.24 1240.35 146.02H1240.37ZM1162.11 114.85C1155.23 114.62 1149.7 116.4 1146.26 117.87C1146.19 117.9 1146.15 117.8 1146.21 117.76C1151.88 114.43 1157.92 107.33 1160.99 101.32C1163.93 95.56 1164.55 86.61 1164.43 81.08C1164.43 80.91 1164.69 80.91 1164.72 81.08L1164.81 83.89C1164.83 87.68 1165.1 98.85 1167.62 105.91C1169.45 111.06 1173.59 117 1177.73 121.12C1174.67 118.5 1169.38 115.09 1162.1 114.85H1162.11Z" fill="currentColor"/>
</svg>
